<svg width="40" height="40" viewBox="0 0 40 40" fill="none" xmlns="http://www.w3.org/2000/svg">
<g clip-path="url(#clip0_11_333)">
<path d="M13.6668 40C17.3468 40 20.3335 37.0133 20.3335 33.3333V26.6666H13.6668C9.98674 26.6666 7 29.6533 7 33.3333C7 37.0133 9.98674 40 13.6668 40Z" fill="#0ACF83"/>
<path d="M7 20C7 16.32 9.98674 13.3333 13.6668 13.3333H20.3335V26.6665H13.6668C9.98674 26.6667 7 23.68 7 20Z" fill="#A259FF"/>
<path d="M7 6.66672C7 2.98672 9.98674 0 13.6668 0H20.3335V13.3333H13.6668C9.98674 13.3333 7 10.3467 7 6.66672Z" fill="#F24E1E"/>
<path d="M20.3333 0H27C30.68 0 33.6668 2.98672 33.6668 6.66672C33.6668 10.3467 30.68 13.3333 27 13.3333H20.3333V0Z" fill="#FF7262"/>
<path d="M33.6668 20C33.6668 23.68 30.68 26.6667 27 26.6667C23.32 26.6667 20.3333 23.68 20.3333 20C20.3333 16.32 23.32 13.3333 27 13.3333C30.68 13.3333 33.6668 16.32 33.6668 20Z" fill="#1ABCFE"/>
</g>
<defs>
<clipPath id="clip0_11_333">
<rect width="40" height="40" fill="white"/>
</clipPath>
</defs>
</svg>
