<svg width="40" height="40" viewBox="0 0 40 40" fill="none" xmlns="http://www.w3.org/2000/svg">
<rect width="40" height="40" rx="20" fill="black"/>
<path fill-rule="evenodd" clip-rule="evenodd" d="M6.64307 19.5981C6.64307 12.1549 12.4767 6.64178 20.0001 6.64178C27.5234 6.64178 33.3571 12.1582 33.3571 19.6014C33.3571 27.0446 27.5234 32.5577 20.0001 32.5577C18.6477 32.5577 17.3521 32.3774 16.1332 32.0435C15.8961 31.9801 15.6424 31.9968 15.4186 32.0969L12.7673 33.2657C12.0727 33.5729 11.2913 33.0787 11.2679 32.3207L11.1945 29.9431C11.1878 29.6493 11.0542 29.3754 10.8372 29.1818C8.23923 26.8576 6.64307 23.4917 6.64307 19.5981ZM15.9026 17.1638L11.979 23.3882C11.6016 23.9859 12.3363 24.6571 12.8973 24.2297L17.1114 21.0306C17.3952 20.8136 17.7893 20.8136 18.0764 21.0273L21.1986 23.3681C22.137 24.0694 23.4727 23.8256 24.0971 22.8338L28.0241 16.6128C28.3981 16.0151 27.6634 15.3406 27.1024 15.768L22.8883 18.967C22.6045 19.184 22.2104 19.184 21.9232 18.9703L18.801 16.6295C17.8627 15.9283 16.527 16.172 15.9026 17.1638Z" fill="white"/>
</svg>
