<svg width="40" height="40" viewBox="0 0 40 40" fill="none" xmlns="http://www.w3.org/2000/svg">
<path d="M28.653 14.4391C31.2253 16.2844 34.3764 17.3701 37.7798 17.3701V10.7977C37.1357 10.7978 36.4932 10.7304 35.8631 10.5964V15.7699C32.46 15.7699 29.3093 14.6842 26.7363 12.839V26.2515C26.7363 32.961 21.3165 38.3999 14.6311 38.3999C12.1367 38.3999 9.81819 37.643 7.89221 36.3451C10.0904 38.6007 13.1559 40 16.5474 40C23.2332 40 28.6533 34.5612 28.6533 27.8513V14.4391H28.653ZM31.0175 7.80833C29.7029 6.36705 28.8398 4.50447 28.653 2.4453V1.59995H26.8367C27.2939 4.21715 28.8533 6.45313 31.0175 7.80833ZM12.1207 31.1963C11.3862 30.2299 10.9893 29.0477 10.9911 27.8321C10.9911 24.7634 13.4701 22.2752 16.5285 22.2752C17.0985 22.2751 17.6651 22.3627 18.2083 22.5356V15.8163C17.5735 15.729 16.9328 15.6919 16.2924 15.7055V20.9355C15.7488 20.7625 15.182 20.6747 14.6119 20.6752C11.5534 20.6752 9.07457 23.1631 9.07457 26.2322C9.07457 28.4023 10.3137 30.2811 12.1207 31.1963Z" fill="#FF004F"/>
<path d="M26.7362 12.8389C29.3092 14.684 32.4599 15.7698 35.863 15.7698V10.5963C33.9634 10.1902 32.2817 9.19401 31.0173 7.80833C28.8531 6.45299 27.2938 4.21701 26.8366 1.59995H22.0656V27.851C22.0548 30.9114 19.58 33.3894 16.5281 33.3894C14.7297 33.3894 13.132 32.529 12.1202 31.1963C10.3133 30.2811 9.07417 28.4022 9.07417 26.2324C9.07417 23.1635 11.553 20.6754 14.6115 20.6754C15.1975 20.6754 15.7622 20.7669 16.292 20.9357V15.7056C9.72414 15.8418 4.44196 21.2275 4.44196 27.8512C4.44196 31.1576 5.75734 34.1551 7.89222 36.3452C9.8182 37.643 12.1367 38.4 14.6312 38.4C21.3166 38.4 26.7364 32.9609 26.7364 26.2515V12.8389H26.7362Z" fill="black"/>
<path d="M35.863 10.5963V9.19747C34.15 9.20008 32.4707 8.71865 31.0174 7.80822C32.3039 9.22177 33.998 10.1964 35.863 10.5963ZM26.8366 1.59997C26.793 1.34985 26.7595 1.09808 26.7363 0.845356V0H20.1488V26.2514C20.1383 29.3113 17.6636 31.7893 14.6115 31.7893C13.7154 31.7893 12.8694 31.5758 12.1202 31.1965C13.1321 32.5291 14.7298 33.3892 16.5282 33.3892C19.5798 33.3892 22.055 30.9115 22.0656 27.8512V1.59997H26.8366ZM16.2923 15.7057V14.2165C15.7419 14.141 15.187 14.1031 14.6313 14.1034C7.94531 14.1032 2.52545 19.5423 2.52545 26.2514C2.52545 30.4575 4.65555 34.1645 7.8924 36.345C5.75751 34.155 4.44213 31.1574 4.44213 27.851C4.44213 21.2275 9.72417 15.8419 16.2923 15.7057Z" fill="#00F2EA"/>
</svg>
