<svg width="40" height="40" viewBox="0 0 40 40" fill="none" xmlns="http://www.w3.org/2000/svg">
<rect width="40" height="40" rx="20" fill="black"/>
<path d="M25.5775 16.1074C27.3781 17.3991 29.5838 18.1591 31.9662 18.1591V13.5584C31.5153 13.5585 31.0656 13.5113 30.6245 13.4175V17.0389C28.2424 17.0389 26.0369 16.2789 24.2358 14.9873V24.376C24.2358 29.0727 20.4419 32.8799 15.7622 32.8799C14.0161 32.8799 12.3931 32.3501 11.0449 31.4415C12.5837 33.0205 14.7295 34 17.1036 34C21.7836 34 25.5777 30.1928 25.5777 25.4959V16.1074H25.5775ZM27.2326 11.4658C26.3124 10.4569 25.7082 9.15313 25.5775 7.71171V7.11996H24.3061C24.6261 8.952 25.7177 10.5172 27.2326 11.4658ZM14.0049 27.8374C13.4907 27.1609 13.2129 26.3334 13.2141 25.4824C13.2141 23.3344 14.9495 21.5926 17.0904 21.5926C17.4893 21.5925 17.8859 21.6539 18.2662 21.7749V17.0714C17.8218 17.0103 17.3734 16.9843 16.9251 16.9939V20.6549C16.5446 20.5338 16.1478 20.4723 15.7487 20.4727C13.6078 20.4727 11.8726 22.2142 11.8726 24.3626C11.8726 25.8816 12.7399 27.1968 14.0049 27.8374Z" fill="#FF004F"/>
<path d="M24.2357 14.9872C26.0368 16.2788 28.2423 17.0388 30.6245 17.0388V13.4174C29.2947 13.1332 28.1176 12.4358 27.2325 11.4658C25.7175 10.5171 24.626 8.95191 24.306 7.11996H20.9663V25.4957C20.9587 27.6379 19.2264 29.3725 17.0901 29.3725C15.8312 29.3725 14.7128 28.7703 14.0045 27.8374C12.7397 27.1968 11.8723 25.8815 11.8723 24.3627C11.8723 22.2145 13.6075 20.4728 15.7484 20.4728C16.1586 20.4728 16.554 20.5369 16.9248 20.655V16.9939C12.3273 17.0893 8.62976 20.8593 8.62976 25.4958C8.62976 27.8103 9.55053 29.9086 11.0449 31.4416C12.3931 32.3501 14.0161 32.88 15.7622 32.88C20.442 32.88 24.2358 29.0726 24.2358 24.376V14.9872H24.2357Z" fill="white"/>
<path d="M30.6245 13.4174V12.4382C29.4254 12.4401 28.2499 12.1031 27.2325 11.4658C28.1331 12.4552 29.319 13.1375 30.6245 13.4174ZM24.306 7.11998C24.2755 6.9449 24.252 6.76866 24.2358 6.59175V6H19.6246V24.3759C19.6172 26.5179 17.8849 28.2525 15.7484 28.2525C15.1212 28.2525 14.529 28.1031 14.0045 27.8375C14.7128 28.7703 15.8312 29.3725 17.0901 29.3725C19.2262 29.3725 20.9589 27.6381 20.9663 25.4958V7.11998H24.306ZM16.925 16.994V15.9515C16.5397 15.8987 16.1513 15.8722 15.7623 15.8724C11.0821 15.8723 7.28821 19.6796 7.28821 24.3759C7.28821 27.3203 8.77928 29.9151 11.0451 31.4415C9.55065 29.9085 8.62988 27.8102 8.62988 25.4957C8.62988 20.8593 12.3273 17.0893 16.925 16.994Z" fill="#00F2EA"/>
</svg>
